<svg width="36px" height="36px" xmlns="http://www.w3.org/2000/svg"><g fill="currentColor"><path d="M18 10.621c2.403 0 2.688.01 3.637.053.877.04 1.354.188 1.671.31.42.162.72.359 1.035.672.316.316.51.615.672 1.035.123.318.27.795.311 1.673.043.948.052 1.233.052 3.636s-.009 2.688-.052 3.637c-.04.878-.186 1.354-.31 1.671a2.8 2.8 0 01-.674 1.035c-.315.316-.615.51-1.035.672-.315.125-.792.27-1.67.311-.949.043-1.234.052-3.637.052s-2.688-.009-3.637-.052c-.877-.04-1.354-.186-1.671-.31a2.787 2.787 0 01-1.036-.672 2.771 2.771 0 01-.671-1.036c-.125-.317-.27-.794-.311-1.67-.043-.95-.053-1.235-.053-3.638 0-2.403.01-2.688.053-3.637.04-.877.188-1.354.31-1.671.162-.42.359-.72.672-1.036.316-.315.615-.51 1.035-.671.318-.125.795-.27 1.673-.311.948-.043 1.233-.053 3.636-.053zM18 9c-2.445 0-2.751.01-3.711.054-.957.045-1.612.195-2.184.418a4.385 4.385 0 00-1.595 1.039 4.417 4.417 0 00-1.037 1.594c-.223.572-.376 1.227-.419 2.184C9.009 15.249 9 15.557 9 18c0 2.444.01 2.751.054 3.711.045.957.195 1.613.418 2.184.23.593.537 1.095 1.039 1.595a4.398 4.398 0 001.594 1.038c.572.222 1.227.375 2.184.418.96.045 1.268.054 3.711.054 2.444 0 2.751-.01 3.711-.054.957-.045 1.613-.195 2.184-.419a4.385 4.385 0 001.595-1.038 4.398 4.398 0 001.038-1.594c.222-.572.375-1.227.418-2.184.045-.96.054-1.267.054-3.711s-.01-2.751-.054-3.711c-.045-.957-.195-1.612-.419-2.184a4.412 4.412 0 00-1.038-1.595 4.41 4.41 0 00-1.594-1.037c-.572-.223-1.227-.376-2.184-.419C20.751 9.009 20.444 9 18 9z"></path><path d="M18 13.379a4.622 4.622 0 100 9.243 4.622 4.622 0 000-9.243zM18 21a3 3 0 110-6 3 3 0 010 6z"></path><circle cx="22.805" cy="13.195" r="1.08"></circle></g></svg>