<svg width="36px" height="36px" xmlns="http://www.w3.org/2000/svg"><path d="M18.492 7.5c-5.73 0-8.62 4.11-8.62 7.536 0 2.075.786 3.92 2.47 4.608.276.113.524.003.603-.303.056-.21.188-.745.248-.967.079-.303.048-.408-.175-.672-.486-.573-.795-1.316-.795-2.366 0-3.048 2.28-5.778 5.937-5.778 3.24 0 5.02 1.98 5.02 4.623 0 3.479-1.54 6.414-3.825 6.414-1.26 0-2.206-1.044-1.902-2.325.361-1.527 1.064-3.175 1.064-4.28 0-.986-.53-1.81-1.627-1.81-1.29 0-2.325 1.335-2.325 3.122 0 1.14.384 1.91.384 1.91l-1.554 6.572c-.46 1.95-.069 4.343-.036 4.584.02.143.204.177.287.07.12-.157 1.655-2.054 2.177-3.949.149-.537.85-3.315.85-3.315.42.8 1.644 1.503 2.946 1.503 3.877 0 6.51-3.535 6.51-8.266-.002-3.58-3.032-6.91-7.639-6.91h.002z" fill="currentColor"></path></svg>