<svg width="36px" height="36px" xmlns="http://www.w3.org/2000/svg"><path d="M28.79 13.58s-.206-1.448-.834-2.085c-.8-.837-1.695-.84-2.104-.89-2.94-.213-7.348-.213-7.348-.213h-.009s-4.408 0-7.347.213c-.41.05-1.304.053-2.104.89-.63.637-.834 2.085-.834 2.085S8 15.276 8 16.976v1.595c0 1.698.21 3.397.21 3.397s.205 1.447.834 2.085c.8.837 1.848.81 2.316.897 1.68.162 7.14.212 7.14.212s4.413-.006 7.35-.22c.412-.049 1.306-.053 2.106-.889.63-.637.834-2.085.834-2.085s.21-1.7.21-3.399v-1.593a31.8 31.8 0 00-.21-3.398zm-12.457 6.922l-.002-5.901 5.675 2.961-5.674 2.94z" fill="currentColor"></path></svg>